<svg xmlns="http://www.w3.org/2000/svg" viewBox="0 0 128 128" role="img" aria-label="Okiki favicon">
  <g fill="none" stroke="#2E5E4E" stroke-linecap="round" stroke-linejoin="round">
    <circle cx="64" cy="37" r="20" fill="#F6C945" stroke-width="6"/>
    <path d="M55 40c4 6 14 6 18 0" stroke-width="4"/>
    <path d="M53 30h.5M75 30h.5" stroke-width="7"/>
    <path d="M29 70l35-29 36 29" stroke-width="9"/>
    <path d="M39 70v35h50V70" fill="#F2E9D8" stroke-width="6"/>
    <path d="M55 105V86c0-6 4-10 9-10s9 4 9 10v19" fill="#fffaf2" stroke-width="5"/>
    <path d="M24 103h80" stroke-width="6"/>
    <path d="M27 55L15 73h24L23 52 8 80h18l-13 21h30" fill="#2E5E4E" stroke-width="4"/>
    <path d="M101 55L89 73h24L97 52 82 80h18l-13 21h30" fill="#2E5E4E" stroke-width="4"/>
    <path d="M20 114c22 8 65 8 88 0" stroke="#4FA3D1" stroke-width="5" opacity=".75"/>
  </g>
</svg>
